<svg xmlns="http://www.w3.org/2000/svg" viewBox="0 0 640 520" role="img" aria-labelledby="title desc">
  <title id="title">Cybersecurity monitoring illustration</title>
  <desc id="desc">A stylised monitor displaying a shield, network nodes and security activity.</desc>
  <rect x="55" y="55" width="530" height="350" rx="26" fill="#EAF6FB"/>
  <rect x="80" y="80" width="480" height="300" rx="18" fill="#0B1F33"/>
  <rect x="266" y="405" width="108" height="36" rx="8" fill="#A7B8C8"/>
  <rect x="205" y="437" width="230" height="26" rx="13" fill="#D3DEE7"/>
  <path d="M320 140 390 166v53c0 45-26 76-70 91-44-15-70-46-70-91v-53l70-26Z" fill="#1677FF"/>
  <path d="m287 220 22 22 46-55" fill="none" stroke="#FFFFFF" stroke-width="13" stroke-linecap="round" stroke-linejoin="round"/>
  <g fill="#22D3EE"><circle cx="160" cy="150" r="9"/><circle cx="480" cy="150" r="9"/><circle cx="147" cy="295" r="9"/><circle cx="496" cy="300" r="9"/></g>
  <g stroke="#22D3EE" stroke-width="4" fill="none" stroke-linecap="round"><path d="M169 150h67l26 22"/><path d="M471 150h-67l-26 22"/><path d="M156 293h73l36-25"/><path d="M487 297h-76l-36-27"/></g>
  <g fill="#14B8A6"><rect x="120" y="112" width="76" height="14" rx="7"/><rect x="444" y="112" width="76" height="14" rx="7"/><rect x="112" y="326" width="92" height="14" rx="7"/><rect x="436" y="330" width="92" height="14" rx="7"/></g>
</svg>
